<mxfile host="65bd71144e">
    <diagram name="Model Comparison - Round 1" id="model-comparison-round1">
        <mxGraphModel dx="1428" dy="711" grid="1" gridSize="10" guides="1" tooltips="1" connect="1" arrows="1" fold="1" page="1" pageScale="1" pageWidth="1400" pageHeight="1000" math="0" shadow="0">
            <root>
                <mxCell id="0"/>
                <mxCell id="1" parent="0"/>
                <object label="🧩 Model Comparison – Round 1" tooltip="Comprehensive comparison of 4 different AI coding models tested with Continue extension in VS Code. Each model was given the same task: &#39;Please use the tool create_new_file to create a TypeScript Lit 3 component for me in a .ts file.&#39; The comparison evaluates tool execution, code quality, modern syntax usage, and overall performance across different model sizes and architectures." id="title">
                    <mxCell style="rounded=1;whiteSpace=wrap;html=1;fontSize=20;fontStyle=1;fillColor=#dae8fc;strokeColor=#6c8ebf;verticalAlign=top;spacingTop=10;spacingBottom=10;" parent="1" vertex="1">
                        <mxGeometry x="40" y="20" width="1320" height="60" as="geometry"/>
                    </mxCell>
                </object>
                <object label="📋 Test Prompt&lt;br&gt;&lt;br&gt;&amp;gt; Please use the tool create_new_file to create a TypeScript Lit 3 component for me in a .ts file." tooltip="The exact prompt given to all models: &#39;Please use the tool create_new_file to create a TypeScript Lit 3 component for me in a .ts file.&#39; This standardized prompt tests each model&#39;s ability to understand tool calling syntax, generate modern TypeScript code, and properly use the Lit 3 framework with decorators and modern imports." id="test-prompt">
                    <mxCell style="rounded=1;whiteSpace=wrap;html=1;fontSize=14;fontStyle=1;fillColor=#e1d5e7;strokeColor=#9673a6;verticalAlign=top;spacingTop=10;spacingBottom=10;" parent="1" vertex="1">
                        <mxGeometry x="40" y="100" width="1320" height="80" as="geometry"/>
                    </mxCell>
                </object>
                <object label="⚙️ Test Environment &amp; Configuration" tooltip="Complete test environment setup including Continue Agent rules, configuration file, and model specifications used in the comparison. This section provides the full context of how the models were tested, including the specific rules they were given, the configuration settings, and the available tools." id="test-environment-title">
                    <mxCell style="rounded=1;whiteSpace=wrap;html=1;fontSize=14;fontStyle=1;fillColor=#fff2cc;strokeColor=#d6b656;verticalAlign=top;spacingTop=10;spacingBottom=10;" vertex="1" parent="1">
                        <mxGeometry x="40" y="200" width="1320" height="40" as="geometry"/>
                    </mxCell>
                </object>
                <object label="📋 Continue Agent Rules&lt;br&gt;&lt;br&gt;&amp;gt; You are a coding agent inside VS Code using Continue Agent mode.&lt;br&gt;&amp;gt; &lt;br&gt;&amp;gt; **Goal:** prefer tools to modify the workspace, then verify with `view_diff()` when relevant.&lt;br&gt;&amp;gt; &lt;br&gt;&amp;gt; If uncertain about a path, call `ls()` or `file_glob_search()` first.&lt;br&gt;&amp;gt; &lt;br&gt;&amp;gt; After executing tools, continue until the user&#39;s task is complete, then summarize what changed.&lt;br&gt;&amp;gt; &lt;br&gt;&amp;gt; **Tools available:**&lt;br&gt;&amp;gt; (listed in the Continue configuration, each with one example)" tooltip="The specific rules and instructions given to all models during the test. These rules define how the models should behave in Continue Agent mode, including their goals, preferred approaches, and available tools. The rules emphasize using tools to modify the workspace, verifying changes with view_diff(), and providing clear summaries of completed tasks." id="continue-rules">
                    <mxCell style="rounded=1;whiteSpace=wrap;html=1;fontSize=11;fillColor=#fff2cc;strokeColor=#d6b656;verticalAlign=top;spacingTop=5;" vertex="1" parent="1">
                        <mxGeometry x="40" y="260" width="640" height="540" as="geometry"/>
                    </mxCell>
                </object>
                <object label="⚙️ Configuration (config.yaml)&lt;br&gt;&lt;br&gt;```yaml&lt;br&gt;name: Local Agent&lt;br&gt;version: 1.0.0&lt;br&gt;schema: v1&lt;br&gt;&lt;br&gt;autoApplyEdits: true&lt;br&gt;autoExecuteToolCalls: true&lt;br&gt;&lt;br&gt;providers:&lt;br&gt;  ollama:&lt;br&gt;    apiBase: http://127.0.0.1:11434&lt;br&gt;&lt;br&gt;models:&lt;br&gt;  - name: StarCoder 2 7B (Ollama)&lt;br&gt;    provider: ollama&lt;br&gt;    model: starcoder2:7b-q4_K_M&lt;br&gt;    roles: [chat, edit, apply, autocomplete]&lt;br&gt;    toolCalling: true&lt;br&gt;&lt;br&gt;  - name: DeepSeek Coder&lt;br&gt;    provider: ollama&lt;br&gt;    model: deepseek-coder:6.7b-instruct-q4_K_M&lt;br&gt;    roles: [chat, edit, apply, autocomplete]&lt;br&gt;    toolCalling: true&lt;br&gt;&lt;br&gt;  - name: Qwen Coder&lt;br&gt;    provider: ollama&lt;br&gt;    model: qwen2.5-coder:7b-instruct-q4_K_M&lt;br&gt;    roles: [chat, edit, apply, autocomplete]&lt;br&gt;    toolCalling: true&lt;br&gt;&lt;br&gt;  - name: StarCoder2 15B Instruct&lt;br&gt;    provider: ollama&lt;br&gt;    model: starcoder2:15b-instruct&lt;br&gt;    roles: [chat, edit, apply, autocomplete]&lt;br&gt;    toolCalling: true&lt;br&gt;&lt;br&gt;  - name: Nomic Embed&lt;br&gt;    provider: ollama&lt;br&gt;    model: nomic-embed-text:latest&lt;br&gt;    roles: [embed]&lt;br&gt;```" tooltip="The complete Continue configuration file used in the test environment. This YAML configuration defines the model providers, API endpoints, and specific model settings. All models are configured with toolCalling: true to enable Continue&#39;s tool usage capabilities. The configuration includes 4 coding models (StarCoder2 7B, DeepSeek Coder 6.7B, Qwen Coder 7B, StarCoder2 15B) and one embedding model (Nomic Embed). All models are quantized (q4_K_M) for efficient local inference while maintaining reasonable performance." id="config-yaml">
                    <mxCell style="rounded=1;whiteSpace=wrap;html=1;fontSize=10;fillColor=#e1d5e7;strokeColor=#9673a6;verticalAlign=top;spacingTop=5;" vertex="1" parent="1">
                        <mxGeometry x="700" y="260" width="660" height="540" as="geometry"/>
                    </mxCell>
                </object>
                <object label="🥇 Model 1: DeepSeek Coder 6.7B Instruct" tooltip="DeepSeek Coder (6.7b-instruct-q4_K_M) - The clear winner in this comparison. Successfully executed the tool call and created the TypeScript Lit component file. Generated valid TypeScript LitElement code with proper structure, though used legacy lit-element import instead of modern lit imports. Demonstrated excellent tool handling capabilities and provided good feedback throughout the process. This model shows the most reliable tool calling behavior and practical coding assistance." id="model1-title">
                    <mxCell style="rounded=1;whiteSpace=wrap;html=1;fontSize=16;fontStyle=1;fillColor=#d5e8d4;strokeColor=#82b366;verticalAlign=top;spacingTop=10;" parent="1" vertex="1">
                        <mxGeometry x="40" y="820" width="320" height="60" as="geometry"/>
                    </mxCell>
                </object>
                <object label="✅ Tool Execution: SUCCESS&lt;br&gt;✅ Code Quality: Good&lt;br&gt;⚠️ Modern Syntax: Legacy imports&lt;br&gt;💬 User Experience: Excellent" tooltip="DeepSeek Coder successfully executed the create_new_file tool and generated a working TypeScript Lit component. The code was syntactically correct and followed Lit patterns, though it used the older lit-element import instead of the modern lit package. The model provided clear feedback and demonstrated reliable tool calling capabilities, making it the most practical choice for Continue integration." id="model1-results">
                    <mxCell style="rounded=1;whiteSpace=wrap;html=1;fontSize=12;fillColor=#d5e8d4;strokeColor=#82b366;verticalAlign=top;spacingTop=5;" parent="1" vertex="1">
                        <mxGeometry x="40" y="900" width="320" height="100" as="geometry"/>
                    </mxCell>
                </object>
                <object label="🥈 Model 2: Qwen2.5 Coder 7B Instruct" tooltip="Qwen2.5 Coder (7b-instruct-q4_K_M) - The runner-up with excellent code quality but tool execution failure. Generated the best TypeScript Lit 3 code using modern decorators and correct lit imports, demonstrating superior understanding of current Lit framework patterns. However, used incorrect JSON schema for tool calling (name/arguments/filepath/contents vs tool/args/path/content), preventing successful file creation. Shows great potential but needs better tool calling consistency." id="model2-title">
                    <mxCell style="rounded=1;whiteSpace=wrap;html=1;fontSize=16;fontStyle=1;fillColor=#fff2cc;strokeColor=#d6b656;verticalAlign=top;spacingTop=10;" parent="1" vertex="1">
                        <mxGeometry x="380" y="820" width="320" height="60" as="geometry"/>
                    </mxCell>
                </object>
                <object label="❌ Tool Execution: FAILED&lt;br&gt;✅ Code Quality: Excellent&lt;br&gt;✅ Modern Syntax: Perfect&lt;br&gt;💬 User Experience: Good" tooltip="Qwen2.5 Coder generated the highest quality TypeScript Lit 3 code with modern decorators and correct imports, but failed to execute the tool due to incorrect JSON schema. The model demonstrated excellent understanding of modern Lit patterns and TypeScript best practices, but struggled with Continue&#39;s specific tool calling format. This represents the best code quality but worst tool execution in the comparison." id="model2-results">
                    <mxCell style="rounded=1;whiteSpace=wrap;html=1;fontSize=12;fillColor=#fff2cc;strokeColor=#d6b656;verticalAlign=top;spacingTop=5;" parent="1" vertex="1">
                        <mxGeometry x="380" y="900" width="320" height="100" as="geometry"/>
                    </mxCell>
                </object>
                <object label="🥉 Model 3: StarCoder2 15B Instruct" tooltip="StarCoder2 (15b-instruct) - Creative but off-task approach. Instead of using Continue&#39;s tool calling system, generated a Python script to create the TypeScript file, showing flexible reasoning but poor context adherence. The approach was innovative but completely ignored the Continue tool schema and produced off-language output (Python instead of TypeScript). Demonstrates creative problem-solving but fails to follow instructions properly." id="model3-title">
                    <mxCell style="rounded=1;whiteSpace=wrap;html=1;fontSize=16;fontStyle=1;fillColor=#ffe6cc;strokeColor=#d79b00;verticalAlign=top;spacingTop=10;" parent="1" vertex="1">
                        <mxGeometry x="720" y="820" width="320" height="60" as="geometry"/>
                    </mxCell>
                </object>
                <object label="⚠️ Tool Execution: Workaround&lt;br&gt;⚠️ Code Quality: Python script&lt;br&gt;❌ Modern Syntax: Wrong language&lt;br&gt;💬 User Experience: Confusing" tooltip="StarCoder2 15B took a creative but problematic approach by generating a Python script instead of using Continue&#39;s tools or creating TypeScript directly. While this shows flexible reasoning, it completely ignored the tool calling requirement and produced off-language output. The model demonstrated creative problem-solving but failed to follow the specific instructions and context of the Continue environment." id="model3-results">
                    <mxCell style="rounded=1;whiteSpace=wrap;html=1;fontSize=12;fillColor=#ffe6cc;strokeColor=#d79b00;verticalAlign=top;spacingTop=5;" parent="1" vertex="1">
                        <mxGeometry x="720" y="900" width="320" height="100" as="geometry"/>
                    </mxCell>
                </object>
                <object label="❌ Model 4: StarCoder2 7B Base" tooltip="StarCoder2 (7b-q4_K_M) - Complete failure with fundamental misunderstanding. Misinterpreted the prompt as a GitHub issue template instead of a coding task, producing irrelevant output with no tool calls or code generation. This represents the worst performance in the comparison, showing poor prompt understanding and no tool calling capabilities. The base model (non-instruct) version appears to lack the instruction-following capabilities needed for Continue integration." id="model4-title">
                    <mxCell style="rounded=1;whiteSpace=wrap;html=1;fontSize=16;fontStyle=1;fillColor=#f8cecc;strokeColor=#b85450;verticalAlign=top;spacingTop=10;" parent="1" vertex="1">
                        <mxGeometry x="1060" y="820" width="320" height="60" as="geometry"/>
                    </mxCell>
                </object>
                <object label="❌ Tool Execution: NONE&lt;br&gt;❌ Code Quality: N/A&lt;br&gt;❌ Modern Syntax: N/A&lt;br&gt;💬 User Experience: Poor" tooltip="StarCoder2 7B base model completely failed to understand the task, producing a GitHub issue template instead of code generation or tool calling. This represents the worst performance in the comparison, showing fundamental misunderstanding of the prompt and no tool calling capabilities. The base model version lacks the instruction-following capabilities needed for practical Continue usage." id="model4-results">
                    <mxCell style="rounded=1;whiteSpace=wrap;html=1;fontSize=12;fillColor=#f8cecc;strokeColor=#b85450;verticalAlign=top;spacingTop=5;" parent="1" vertex="1">
                        <mxGeometry x="1060" y="900" width="320" height="100" as="geometry"/>
                    </mxCell>
                </object>
                <object label="📊 Detailed Results Analysis" tooltip="Comprehensive analysis of each model&#39;s performance across key metrics: tool execution (ability to use Continue&#39;s tools), code quality (syntax correctness and best practices), modern syntax (use of current frameworks and patterns), and user experience (clarity of communication and helpfulness). This analysis reveals significant differences in model capabilities and helps identify the best choices for different use cases." id="analysis-title">
                    <mxCell style="rounded=1;whiteSpace=wrap;html=1;fontSize=16;fontStyle=1;fillColor=#e1d5e7;strokeColor=#9673a6;verticalAlign=top;spacingTop=10;" parent="1" vertex="1">
                        <mxGeometry x="40" y="1020" width="1320" height="40" as="geometry"/>
                    </mxCell>
                </object>
                <object label="🔧 Tool Execution Comparison&lt;br&gt;&lt;br&gt;🥇 DeepSeek Coder: Actually created file&lt;br&gt;🥈 Qwen2.5 Coder: Wrong JSON schema&lt;br&gt;🥉 StarCoder2 15B: Python workaround&lt;br&gt;❌ StarCoder2 7B: No tool usage&lt;br&gt;&lt;br&gt;Key Insight: Only DeepSeek successfully used Continue&#39;s tool calling system as intended." tooltip="Tool execution is the most critical factor for Continue integration. DeepSeek Coder was the only model to successfully execute the create_new_file tool and actually create the requested TypeScript file. Qwen2.5 Coder attempted tool calling but used incorrect JSON schema, preventing execution. StarCoder2 15B created a workaround Python script instead of using tools. StarCoder2 7B completely ignored tool calling. This reveals that tool calling reliability varies significantly between models, with DeepSeek showing the most consistent behavior." id="tool-execution">
                    <mxCell style="rounded=1;whiteSpace=wrap;html=1;fontSize=11;fillColor=#d5e8d4;strokeColor=#82b366;verticalAlign=top;spacingTop=5;" parent="1" vertex="1">
                        <mxGeometry x="40" y="1080" width="320" height="160" as="geometry"/>
                    </mxCell>
                </object>
                <object label="💻 Code Quality Assessment&lt;br&gt;&lt;br&gt;🥇 Qwen2.5 Coder: Modern Lit 3 + decorators&lt;br&gt;🥈 DeepSeek Coder: Valid Lit, legacy imports&lt;br&gt;🥉 StarCoder2 15B: Python script (off-task)&lt;br&gt;❌ StarCoder2 7B: GitHub template (irrelevant)&lt;br&gt;&lt;br&gt;Key Insight: Qwen2.5 produced the best TypeScript code quality with modern patterns." tooltip="Code quality assessment focuses on TypeScript syntax correctness, Lit framework usage, and adherence to modern best practices. Qwen2.5 Coder generated the highest quality code with modern Lit 3 decorators and correct imports, demonstrating superior understanding of current TypeScript and Lit patterns. DeepSeek Coder produced valid, working code but used legacy lit-element imports instead of modern lit package. StarCoder2 15B generated a Python script (completely off-task), while StarCoder2 7B produced irrelevant GitHub issue templates. This shows that code quality varies significantly, with Qwen2.5 excelling at modern syntax but struggling with tool execution." id="code-quality">
                    <mxCell style="rounded=1;whiteSpace=wrap;html=1;fontSize=11;fillColor=#fff2cc;strokeColor=#d6b656;verticalAlign=top;spacingTop=5;" parent="1" vertex="1">
                        <mxGeometry x="380" y="1080" width="320" height="160" as="geometry"/>
                    </mxCell>
                </object>
                <object label="⚡ Modern Syntax Usage&lt;br&gt;&lt;br&gt;🥇 Qwen2.5 Coder: Perfect Lit 3 decorators&lt;br&gt;🥈 DeepSeek Coder: Working but legacy imports&lt;br&gt;🥉 StarCoder2 15B: Wrong language entirely&lt;br&gt;❌ StarCoder2 7B: No code generated&lt;br&gt;&lt;br&gt;Key Insight: Only Qwen2.5 used truly modern Lit 3 patterns with decorators." tooltip="Modern syntax evaluation focuses on use of current Lit 3 patterns, TypeScript decorators, and up-to-date import statements. Qwen2.5 Coder excelled with perfect Lit 3 decorator syntax and modern imports, showing excellent knowledge of current framework patterns. DeepSeek Coder used working but outdated lit-element imports instead of the modern lit package. StarCoder2 15B generated Python instead of TypeScript, while StarCoder2 7B produced no code at all. This reveals that modern syntax knowledge varies significantly between models, with Qwen2.5 showing the most current understanding of Lit framework evolution." id="modern-syntax">
                    <mxCell style="rounded=1;whiteSpace=wrap;html=1;fontSize=11;fillColor=#ffe6cc;strokeColor=#d79b00;verticalAlign=top;spacingTop=5;" parent="1" vertex="1">
                        <mxGeometry x="720" y="1080" width="320" height="160" as="geometry"/>
                    </mxCell>
                </object>
                <object label="💬 User Experience Rating&lt;br&gt;&lt;br&gt;🥇 DeepSeek Coder: Clear, helpful feedback&lt;br&gt;🥈 Qwen2.5 Coder: Good but tool failed&lt;br&gt;🥉 StarCoder2 15B: Confusing workaround&lt;br&gt;❌ StarCoder2 7B: Completely irrelevant&lt;br&gt;&lt;br&gt;Key Insight: DeepSeek provided the most practical and helpful user experience." tooltip="User experience evaluation considers clarity of communication, helpfulness of responses, and overall interaction quality. DeepSeek Coder provided the best user experience with clear feedback, successful task completion, and helpful explanations throughout the process. Qwen2.5 Coder offered good communication but failed to complete the task due to tool execution issues. StarCoder2 15B created confusion by generating off-task Python code instead of following instructions. StarCoder2 7B provided completely irrelevant responses that didn&#39;t address the request. This shows that user experience quality correlates strongly with task completion success and clear communication." id="user-experience">
                    <mxCell style="rounded=1;whiteSpace=wrap;html=1;fontSize=11;fillColor=#f8cecc;strokeColor=#b85450;verticalAlign=top;spacingTop=5;" parent="1" vertex="1">
                        <mxGeometry x="1060" y="1080" width="320" height="160" as="geometry"/>
                    </mxCell>
                </object>
                <object label="🏆 Round 1 Summary &amp; Recommendations" tooltip="Comprehensive summary of Round 1 results with actionable recommendations for Continue users. The comparison reveals clear winners in different categories and provides guidance for choosing the right model based on specific needs. Key findings include the importance of tool calling reliability, the trade-off between code quality and tool execution, and the significant performance differences between base and instruct models." id="summary-title">
                    <mxCell style="rounded=1;whiteSpace=wrap;html=1;fontSize=16;fontStyle=1;fillColor=#dae8fc;strokeColor=#6c8ebf;verticalAlign=top;spacingTop=10;" parent="1" vertex="1">
                        <mxGeometry x="40" y="1260" width="1320" height="40" as="geometry"/>
                    </mxCell>
                </object>
                <object label="🥇 Best Overall: DeepSeek Coder 6.7B&lt;br&gt;&lt;br&gt;✅ Reliable tool execution&lt;br&gt;✅ Good code quality&lt;br&gt;✅ Clear communication&lt;br&gt;✅ Practical results&lt;br&gt;&lt;br&gt;Recommended for: Daily Continue usage, reliable tool calling, consistent performance" tooltip="DeepSeek Coder 6.7B emerges as the clear winner for practical Continue usage. It successfully executed the tool call, created the requested file, and provided clear feedback throughout the process. While it used legacy imports instead of modern Lit 3 syntax, the code was functional and the tool execution was reliable. This model offers the best balance of tool calling capability, code quality, and user experience, making it the top choice for developers who need consistent, reliable AI assistance with Continue." id="best-overall">
                    <mxCell style="rounded=1;whiteSpace=wrap;html=1;fontSize=12;fillColor=#d5e8d4;strokeColor=#82b366;verticalAlign=top;spacingTop=5;" parent="1" vertex="1">
                        <mxGeometry x="40" y="1320" width="320" height="140" as="geometry"/>
                    </mxCell>
                </object>
                <object label="🥈 Best Code Quality: Qwen2.5 Coder 7B&lt;br&gt;&lt;br&gt;✅ Modern Lit 3 decorators&lt;br&gt;✅ Perfect TypeScript syntax&lt;br&gt;✅ Current best practices&lt;br&gt;❌ Tool calling issues&lt;br&gt;&lt;br&gt;Recommended for: Code review, syntax examples, when tool calling isn&#39;t critical" tooltip="Qwen2.5 Coder 7B produces the highest quality TypeScript code with modern Lit 3 decorators and perfect syntax, but struggles with tool execution due to incorrect JSON schema usage. This model excels at generating code examples, providing syntax guidance, and demonstrating modern best practices. However, its tool calling inconsistency makes it less reliable for automated tasks. Best used for code review, learning modern patterns, or when manual code copying is acceptable." id="best-code-quality">
                    <mxCell style="rounded=1;whiteSpace=wrap;html=1;fontSize=12;fillColor=#fff2cc;strokeColor=#d6b656;verticalAlign=top;spacingTop=5;" parent="1" vertex="1">
                        <mxGeometry x="380" y="1320" width="320" height="140" as="geometry"/>
                    </mxCell>
                </object>
                <object label="⚠️ Avoid: StarCoder2 Models&lt;br&gt;&lt;br&gt;❌ 7B Base: Complete failure&lt;br&gt;❌ 15B Instruct: Off-task behavior&lt;br&gt;❌ Poor tool calling&lt;br&gt;❌ Inconsistent results&lt;br&gt;&lt;br&gt;Not recommended for: Continue integration, reliable coding assistance" tooltip="Both StarCoder2 models performed poorly in this comparison. The 7B base model completely failed to understand the task, producing irrelevant GitHub issue templates instead of code. The 15B instruct model showed creative but problematic behavior by generating Python scripts instead of following the TypeScript tool calling instructions. Both models demonstrate poor tool calling capabilities and inconsistent behavior, making them unsuitable for reliable Continue integration. Users should avoid these models for practical coding assistance." id="avoid-models">
                    <mxCell style="rounded=1;whiteSpace=wrap;html=1;fontSize=12;fillColor=#f8cecc;strokeColor=#b85450;verticalAlign=top;spacingTop=5;" parent="1" vertex="1">
                        <mxGeometry x="720" y="1320" width="320" height="140" as="geometry"/>
                    </mxCell>
                </object>
                <object label="🔮 Key Insights for Continue Users&lt;br&gt;&lt;br&gt;• Tool calling reliability varies dramatically&lt;br&gt;• Code quality ≠ tool execution success&lt;br&gt;• Instruct models outperform base models&lt;br&gt;• Model size doesn&#39;t guarantee better performance&lt;br&gt;• DeepSeek offers best practical balance&lt;br&gt;&lt;br&gt;Next: Test with more complex tasks and edge cases" tooltip="Key insights from Round 1 reveal important patterns for Continue users. Tool calling reliability varies dramatically between models, with only DeepSeek showing consistent success. Code quality doesn&#39;t correlate with tool execution success - Qwen2.5 produces better code but fails at tool calling. Instruct models significantly outperform base models for instruction-following tasks. Model size doesn&#39;t guarantee better performance - the 6.7B DeepSeek outperformed the 15B StarCoder2. DeepSeek offers the best practical balance for daily Continue usage. Future rounds should test more complex tasks, edge cases, and different types of tool calling scenarios to further validate these findings." id="key-insights">
                    <mxCell style="rounded=1;whiteSpace=wrap;html=1;fontSize=12;fillColor=#e1d5e7;strokeColor=#9673a6;verticalAlign=top;spacingTop=5;" parent="1" vertex="1">
                        <mxGeometry x="1060" y="1320" width="320" height="140" as="geometry"/>
                    </mxCell>
                </object>
                <object label="📈 Performance Metrics Summary" tooltip="Quantitative summary of model performance across key metrics. This table provides a clear comparison of how each model performed in different categories, making it easy to identify strengths and weaknesses. The metrics reveal the trade-offs between different model capabilities and help users make informed decisions about which model to use for specific tasks." id="metrics-title">
                    <mxCell style="rounded=1;whiteSpace=wrap;html=1;fontSize=16;fontStyle=1;fillColor=#dae8fc;strokeColor=#6c8ebf;verticalAlign=top;spacingTop=10;" parent="1" vertex="1">
                        <mxGeometry x="40" y="1480" width="1320" height="40" as="geometry"/>
                    </mxCell>
                </object>
                <object label="Model Performance Matrix&lt;br&gt;&lt;br&gt;&lt;table style=&quot;width:100%; border-collapse:collapse;&quot;&gt;&lt;tr&gt;&lt;th style=&quot;text-align:left; padding:4px;&quot;&gt;Model&lt;/th&gt;&lt;th style=&quot;text-align:center; padding:4px;&quot;&gt;Tool Exec&lt;/th&gt;&lt;th style=&quot;text-align:center; padding:4px;&quot;&gt;Code Quality&lt;/th&gt;&lt;th style=&quot;text-align:center; padding:4px;&quot;&gt;Modern Syntax&lt;/th&gt;&lt;th style=&quot;text-align:center; padding:4px;&quot;&gt;UX&lt;/th&gt;&lt;th style=&quot;text-align:center; padding:4px;&quot;&gt;Overall&lt;/th&gt;&lt;/tr&gt;&lt;tr&gt;&lt;td style=&quot;padding:4px;&quot;&gt;&lt;b&gt;DeepSeek 6.7B&lt;/b&gt;&lt;/td&gt;&lt;td style=&quot;text-align:center; padding:4px;&quot;&gt;✅ 10/10&lt;/td&gt;&lt;td style=&quot;text-align:center; padding:4px;&quot;&gt;✅ 8/10&lt;/td&gt;&lt;td style=&quot;text-align:center; padding:4px;&quot;&gt;⚠️ 6/10&lt;/td&gt;&lt;td style=&quot;text-align:center; padding:4px;&quot;&gt;✅ 9/10&lt;/td&gt;&lt;td style=&quot;text-align:center; padding:4px;&quot;&gt;&lt;b&gt;🥇 8.25/10&lt;/b&gt;&lt;/td&gt;&lt;/tr&gt;&lt;tr&gt;&lt;td style=&quot;padding:4px;&quot;&gt;&lt;b&gt;Qwen2.5 7B&lt;/b&gt;&lt;/td&gt;&lt;td style=&quot;text-align:center; padding:4px;&quot;&gt;❌ 2/10&lt;/td&gt;&lt;td style=&quot;text-align:center; padding:4px;&quot;&gt;✅ 10/10&lt;/td&gt;&lt;td style=&quot;text-align:center; padding:4px;&quot;&gt;✅ 10/10&lt;/td&gt;&lt;td style=&quot;text-align:center; padding:4px;&quot;&gt;✅ 7/10&lt;/td&gt;&lt;td style=&quot;text-align:center; padding:4px;&quot;&gt;&lt;b&gt;🥈 7.25/10&lt;/b&gt;&lt;/td&gt;&lt;/tr&gt;&lt;tr&gt;&lt;td style=&quot;padding:4px;&quot;&gt;&lt;b&gt;StarCoder2 15B&lt;/b&gt;&lt;/td&gt;&lt;td style=&quot;text-align:center; padding:4px;&quot;&gt;⚠️ 4/10&lt;/td&gt;&lt;td style=&quot;text-align:center; padding:4px;&quot;&gt;⚠️ 3/10&lt;/td&gt;&lt;td style=&quot;text-align:center; padding:4px;&quot;&gt;❌ 1/10&lt;/td&gt;&lt;td style=&quot;text-align:center; padding:4px;&quot;&gt;⚠️ 4/10&lt;/td&gt;&lt;td style=&quot;text-align:center; padding:4px;&quot;&gt;&lt;b&gt;🥉 3.0/10&lt;/b&gt;&lt;/td&gt;&lt;/tr&gt;&lt;tr&gt;&lt;td style=&quot;padding:4px;&quot;&gt;&lt;b&gt;StarCoder2 7B&lt;/b&gt;&lt;/td&gt;&lt;td style=&quot;text-align:center; padding:4px;&quot;&gt;❌ 0/10&lt;/td&gt;&lt;td style=&quot;text-align:center; padding:4px;&quot;&gt;❌ 0/10&lt;/td&gt;&lt;td style=&quot;text-align:center; padding:4px;&quot;&gt;❌ 0/10&lt;/td&gt;&lt;td style=&quot;text-align:center; padding:4px;&quot;&gt;❌ 2/10&lt;/td&gt;&lt;td style=&quot;text-align:center; padding:4px;&quot;&gt;&lt;b&gt;❌ 0.5/10&lt;/b&gt;&lt;/td&gt;&lt;/tr&gt;&lt;/table&gt;" tooltip="Performance matrix showing quantitative scores for each model across key metrics. DeepSeek Coder leads with 8.25/10 overall, excelling in tool execution and user experience. Qwen2.5 Coder scores 7.25/10 with perfect code quality and modern syntax but poor tool execution. StarCoder2 15B scores 3.0/10 with some creative problem-solving but poor task adherence. StarCoder2 7B scores 0.5/10 with complete failure across all metrics. This quantitative analysis confirms the qualitative findings and provides clear guidance for model selection." id="performance-matrix">
                    <mxCell style="rounded=1;whiteSpace=wrap;html=1;fontSize=11;fillColor=#f5f5f5;strokeColor=#666666;verticalAlign=top;spacingTop=5;" parent="1" vertex="1">
                        <mxGeometry x="40" y="1540" width="1320" height="160" as="geometry"/>
                    </mxCell>
                </object>
            </root>
        </mxGraphModel>
    </diagram>
</mxfile>